<?xml version="1.0" encoding="utf-8"?>
<!-- Generated by IcoMoon.io -->
<svg version="1.1" xmlns="http://www.w3.org/2000/svg" xmlns:xlink="http://www.w3.org/1999/xlink" width="496" height="16" viewBox="0 0 496 16">
<svg id="icon-home3" width="16" height="16" viewBox="0 0 16 16" x="0" y="0">
<path fill="#444" d="M16 9.5l-3-3v-4.5h-2v2.5l-3-3-8 8v0.5h2v5h5v-3h2v3h5v-5h2z"></path>
</svg>
<svg id="icon-pacman" width="16" height="16" viewBox="0 0 16 16" x="32" y="0">
<path fill="#444" d="M15.074 2.794c-1.467-1.71-3.644-2.794-6.074-2.794-4.418 0-8 3.582-8 8s3.582 8 8 8c2.43 0 4.607-1.084 6.074-2.794l-5.074-5.206 5.074-5.206zM11 1.884c0.616 0 1.116 0.499 1.116 1.116s-0.499 1.116-1.116 1.116-1.116-0.499-1.116-1.116c0-0.616 0.499-1.116 1.116-1.116z"></path>
</svg>
<svg id="icon-alarm" width="16" height="16" viewBox="0 0 16 16" x="64" y="0">
<path fill="#444" d="M8 2c-3.866 0-7 3.134-7 7s3.134 7 7 7 7-3.134 7-7-3.134-7-7-7zM8 14.625c-3.107 0-5.625-2.518-5.625-5.625s2.518-5.625 5.625-5.625c3.107 0 5.625 2.518 5.625 5.625s-2.518 5.625-5.625 5.625zM14.606 4.487c0.251-0.438 0.394-0.946 0.394-1.487 0-1.657-1.343-3-3-3-0.966 0-1.825 0.457-2.374 1.166 2.061 0.426 3.831 1.644 4.98 3.322v0zM6.374 1.166c-0.549-0.709-1.408-1.166-2.374-1.166-1.657 0-3 1.343-3 3 0 0.541 0.143 1.049 0.394 1.487 1.148-1.678 2.919-2.896 4.98-3.322z"></path>
<path fill="#444" d="M8 9v-4h-1v5h4v-1z"></path>
</svg>
<svg id="icon-zoom-in" width="16" height="16" viewBox="0 0 16 16" x="96" y="0">
<path fill="#444" d="M15.504 13.616l-3.79-3.223c-0.392-0.353-0.811-0.514-1.149-0.499 0.895-1.048 1.435-2.407 1.435-3.893 0-3.314-2.686-6-6-6s-6 2.686-6 6 2.686 6 6 6c1.486 0 2.845-0.54 3.893-1.435-0.016 0.338 0.146 0.757 0.499 1.149l3.223 3.79c0.552 0.613 1.453 0.665 2.003 0.115s0.498-1.452-0.115-2.003zM6 10c-2.209 0-4-1.791-4-4s1.791-4 4-4 4 1.791 4 4-1.791 4-4 4zM7 3h-2v2h-2v2h2v2h2v-2h2v-2h-2z"></path>
</svg>
<svg id="icon-cross" width="16" height="16" viewBox="0 0 16 16" x="128" y="0">
<path fill="#444" d="M15.854 12.854c-0-0-0-0-0-0l-4.854-4.854 4.854-4.854c0-0 0-0 0-0 0.052-0.052 0.090-0.113 0.114-0.178 0.066-0.178 0.028-0.386-0.114-0.529l-2.293-2.293c-0.143-0.143-0.351-0.181-0.529-0.114-0.065 0.024-0.126 0.062-0.178 0.114 0 0-0 0-0 0l-4.854 4.854-4.854-4.854c-0-0-0-0-0-0-0.052-0.052-0.113-0.090-0.178-0.114-0.178-0.066-0.386-0.029-0.529 0.114l-2.293 2.293c-0.143 0.143-0.181 0.351-0.114 0.529 0.024 0.065 0.062 0.126 0.114 0.178 0 0 0 0 0 0l4.854 4.854-4.854 4.854c-0 0-0 0-0 0-0.052 0.052-0.090 0.113-0.114 0.178-0.066 0.178-0.029 0.386 0.114 0.529l2.293 2.293c0.143 0.143 0.351 0.181 0.529 0.114 0.065-0.024 0.126-0.062 0.178-0.114 0-0 0-0 0-0l4.854-4.854 4.854 4.854c0 0 0 0 0 0 0.052 0.052 0.113 0.090 0.178 0.114 0.178 0.066 0.386 0.029 0.529-0.114l2.293-2.293c0.143-0.143 0.181-0.351 0.114-0.529-0.024-0.065-0.062-0.126-0.114-0.178z"></path>
</svg>
<svg id="icon-checkmark" width="16" height="16" viewBox="0 0 16 16" x="160" y="0">
<path fill="#444" d="M13.5 2l-7.5 7.5-3.5-3.5-2.5 2.5 6 6 10-10z"></path>
</svg>
</svg>
